<svg xmlns="http://www.w3.org/2000/svg" width="1600" height="800" viewBox="0 0 1600 800" role="img" aria-labelledby="t d"><title id="t">ESP32 con Bluetooth BLE: Control desde el Celular</title><desc id="d">Ilustración técnica editorial para ESP32 con Bluetooth BLE: Control desde el Celular</desc><defs><linearGradient id="g" x2="1" y2="1"><stop stop-color="#161b24"/><stop offset="1" stop-color="#27334f"/></linearGradient><pattern id="p" width="48" height="48" patternUnits="userSpaceOnUse"><path d="M48 0H0V48" fill="none" stroke="#e4c07a" stroke-opacity=".08"/></pattern></defs><rect width="1600" height="800" fill="url(#g)"/><rect width="1600" height="800" fill="url(#p)"/><g fill="none" stroke="#e4c07a" stroke-width="8" opacity=".9"><rect x="970" y="420" width="200" height="150" rx="12"/><rect x="1030" y="465" width="80" height="60" rx="6" stroke-width="5"/><path d="M970 445h-30M970 475h-30M970 505h-30M970 535h-30M1170 445h30M1170 475h30M1170 505h30M1170 535h30" stroke-width="6"/><path d="M1250 495a70 70 0 0 1 0-1M1268 420a120 120 0 0 1 62 75M1296 360a190 190 0 0 1 98 135" stroke-width="6"/><rect x="1350" y="250" width="150" height="310" rx="24"/><path d="M1400 275h50" stroke-width="5"/></g><g fill="#2f6fb0" opacity=".75"><rect x="1370" y="305" width="110" height="200" rx="10"/></g><text x="120" y="160" fill="#e4c07a" font-family="Arial,sans-serif" font-size="30" letter-spacing="5">ESP32 Y IOT</text><foreignObject x="115" y="210" width="700" height="390"><div xmlns="http://www.w3.org/1999/xhtml" style="font:64px Georgia,serif;line-height:1.08;color:white">ESP32 con Bluetooth BLE: Control desde el Celular</div></foreignObject></svg>