<svg xmlns="http://www.w3.org/2000/svg" width="1600" height="800" viewBox="0 0 1600 800" role="img" aria-labelledby="t d"><title id="t">LoRa y LoRaWAN para Telemetría: Alcance Real y Regulación en Chile</title><desc id="d">Ilustración técnica editorial para LoRa y LoRaWAN para Telemetría: Alcance Real y Regulación en Chile</desc><defs><linearGradient id="g" x2="1" y2="1"><stop stop-color="#161b24"/><stop offset="1" stop-color="#3a2f3f"/></linearGradient><pattern id="p" width="48" height="48" patternUnits="userSpaceOnUse"><path d="M48 0H0V48" fill="none" stroke="#e4c07a" stroke-opacity=".08"/></pattern></defs><rect width="1600" height="800" fill="url(#g)"/><rect width="1600" height="800" fill="url(#p)"/><g fill="none" stroke="#e4c07a" stroke-width="7" opacity=".9"><path d="M1120 620V330" stroke-width="10"/><path d="M1080 620h80" stroke-width="10"/><path d="M1120 330l-45 60h90z" stroke-width="8"/><path d="M1200 250a260 260 0 0 1 0 380" opacity=".85"/><path d="M1270 190a360 360 0 0 1 0 500" opacity=".6"/><path d="M1340 130a460 460 0 0 1 0 620" opacity=".35"/></g><g fill="none" stroke="#2f6fb0" stroke-width="6" opacity=".8"><rect x="1400" y="560" width="120" height="80" rx="10"/><path d="M1460 560v-60" /></g><text x="120" y="160" fill="#e4c07a" font-family="Arial,sans-serif" font-size="30" letter-spacing="5">IOT · REDES LPWAN</text><foreignObject x="115" y="210" width="700" height="390"><div xmlns="http://www.w3.org/1999/xhtml" style="font:64px Georgia,serif;line-height:1.08;color:white">LoRa y LoRaWAN para Telemetría: Alcance Real y Regulación en Chile</div></foreignObject></svg>
