<svg xmlns="http://www.w3.org/2000/svg" width="1600" height="800" viewBox="0 0 1600 800" role="img" aria-labelledby="t d"><title id="t">Motores BLDC con Control de Campo (FOC) para Robótica: Potencia y Precisión</title><desc id="d">Ilustración técnica editorial para Motores BLDC con Control de Campo (FOC) para Robótica: Potencia y Precisión</desc><defs><linearGradient id="g" x2="1" y2="1"><stop stop-color="#161b24"/><stop offset="1" stop-color="#3d3226"/></linearGradient><pattern id="p" width="48" height="48" patternUnits="userSpaceOnUse"><path d="M48 0H0V48" fill="none" stroke="#e4c07a" stroke-opacity=".08"/></pattern></defs><rect width="1600" height="800" fill="url(#g)"/><rect width="1600" height="800" fill="url(#p)"/><g fill="none" stroke="#e4c07a" stroke-width="8" opacity=".9"><circle cx="1210" cy="330" r="150"/><circle cx="1210" cy="330" r="90"/><circle cx="1210" cy="330" r="24" fill="#e4c07a" stroke="none"/><path d="M1210 330L1210 120" stroke-width="10"/><path d="M1188 152l22-32 22 32" stroke-width="8"/><path d="M1260 330a50 50 0 0 0-20-40" stroke-width="5"/><path d="M960 560q30-60 60 0t60 0 60 0 60 0 60 0 60 0 60 0 60 0 60 0" stroke-width="6"/><path d="M960 620q30-60 60 0t60 0 60 0 60 0 60 0 60 0 60 0 60 0 60 0" stroke-width="6" opacity=".65"/><path d="M960 680q30-60 60 0t60 0 60 0 60 0 60 0 60 0 60 0 60 0 60 0" stroke-width="6" opacity=".4"/></g><g fill="#2f6fb0" opacity=".8"><circle cx="1210" cy="180" r="16"/><circle cx="1320" cy="330" r="16"/><circle cx="1210" cy="480" r="16"/><g stroke="#2f6fb0" stroke-width="6" fill="none"><path d="M1282 258a80 80 0 0 1 0 144"/></g></g><text x="120" y="160" fill="#e4c07a" font-family="Arial,sans-serif" font-size="30" letter-spacing="5">ROBÓTICA · ACTUADORES</text><foreignObject x="115" y="210" width="700" height="390"><div xmlns="http://www.w3.org/1999/xhtml" style="font:64px Georgia,serif;line-height:1.08;color:white">Motores BLDC con Control de Campo (FOC) para Robótica: Potencia y Precisión</div></foreignObject></svg>