<svg xmlns="http://www.w3.org/2000/svg" width="1600" height="800" viewBox="0 0 1600 800" role="img" aria-labelledby="t d"><title id="t">Reductores Planetarios vs Cicloidales para Robots: Juego y Rigidez</title><desc id="d">Ilustración técnica editorial para Reductores Planetarios vs Cicloidales para Robots: Juego y Rigidez</desc><defs><linearGradient id="g" x2="1" y2="1"><stop stop-color="#161b24"/><stop offset="1" stop-color="#3a2f3f"/></linearGradient><pattern id="p" width="48" height="48" patternUnits="userSpaceOnUse"><path d="M48 0H0V48" fill="none" stroke="#e4c07a" stroke-opacity=".08"/></pattern></defs><rect width="1600" height="800" fill="url(#g)"/><rect width="1600" height="800" fill="url(#p)"/><g fill="none" stroke="#e4c07a" stroke-width="8" opacity=".9"><circle cx="1160" cy="380" r="130"/><circle cx="1160" cy="380" r="52"/><path d="M1160 250v-46M1160 510v46M1030 380h-46M1290 380h46M1068 288l-33-33M1252 472l33 33M1252 288l33-33M1068 472l-33 33" stroke-width="10"/><circle cx="1400" cy="560" r="86"/><circle cx="1400" cy="560" r="34"/><path d="M1400 474v-34M1400 646v34M1314 560h-34M1486 560h34" stroke-width="9"/></g><g fill="none" stroke="#2f6fb0" stroke-width="6" opacity=".75"><path d="M1000 640h420"/></g><text x="120" y="160" fill="#e4c07a" font-family="Arial,sans-serif" font-size="30" letter-spacing="5">DISEÑO MECÁNICO · TRANSMISIÓN</text><foreignObject x="115" y="210" width="700" height="390"><div xmlns="http://www.w3.org/1999/xhtml" style="font:64px Georgia,serif;line-height:1.08;color:white">Reductores Planetarios vs Cicloidales para Robots: Juego y Rigidez</div></foreignObject></svg>
