<svg xmlns="http://www.w3.org/2000/svg" width="1600" height="800" viewBox="0 0 1600 800" role="img" aria-labelledby="t d"><title id="t">Repara la Batería de tu Scooter Eléctrico Xiaomi M365</title><desc id="d">Ilustración técnica editorial para Repara la Batería de tu Scooter Eléctrico Xiaomi M365</desc><defs><linearGradient id="g" x2="1" y2="1"><stop stop-color="#161b24"/><stop offset="1" stop-color="#243426"/></linearGradient><pattern id="p" width="48" height="48" patternUnits="userSpaceOnUse"><path d="M48 0H0V48" fill="none" stroke="#e4c07a" stroke-opacity=".08"/></pattern></defs><rect width="1600" height="800" fill="url(#g)"/><rect width="1600" height="800" fill="url(#p)"/><g fill="none" stroke="#e4c07a" stroke-width="8" opacity=".9"><circle cx="1040" cy="600" r="80"/><circle cx="1040" cy="600" r="30"/><circle cx="1420" cy="600" r="80"/><circle cx="1420" cy="600" r="30"/><path d="M1040 520V220M990 220h100" stroke-width="7"/><path d="M1120 600h220" stroke-width="7"/><path d="M1040 680a80 80 0 0 0 80-40" stroke-width="6"/><rect x="1150" y="545" width="190" height="60" rx="8" stroke-width="6"/><path d="M1213 545v60M1276 545v60" stroke-width="5"/><path d="M1180 470h130M1180 500h130" stroke-width="4"/></g><g fill="#2f6fb0" opacity=".75"><rect x="1160" y="555" width="45" height="40" rx="4"/><rect x="1223" y="555" width="45" height="40" rx="4"/><rect x="1286" y="555" width="45" height="40" rx="4"/></g><text x="120" y="160" fill="#e4c07a" font-family="Arial,sans-serif" font-size="30" letter-spacing="5">BATERÍAS Y REPARACIÓN</text><foreignObject x="115" y="210" width="700" height="390"><div xmlns="http://www.w3.org/1999/xhtml" style="font:64px Georgia,serif;line-height:1.08;color:white">Repara la Batería de tu Scooter Eléctrico Xiaomi M365</div></foreignObject></svg>