<svg xmlns="http://www.w3.org/2000/svg" width="1600" height="800" viewBox="0 0 1600 800" role="img" aria-labelledby="t d"><title id="t">Simuladores de Circuitos Online: Falstad vs Tinkercad</title><desc id="d">Ilustración técnica editorial para Simuladores de Circuitos Online: Falstad vs Tinkercad</desc><defs><linearGradient id="g" x2="1" y2="1"><stop stop-color="#161b24"/><stop offset="1" stop-color="#233a4a"/></linearGradient><pattern id="p" width="48" height="48" patternUnits="userSpaceOnUse"><path d="M48 0H0V48" fill="none" stroke="#e4c07a" stroke-opacity=".08"/></pattern></defs><rect width="1600" height="800" fill="url(#g)"/><rect width="1600" height="800" fill="url(#p)"/><g fill="none" stroke="#e4c07a" stroke-width="8" opacity=".9"><circle cx="1000" cy="270" r="55"/><path d="M1000 215v-60h120" stroke-width="6"/><path d="M1120 155h100l20 25 20-50 20 50 20-50 20 50 20-25h60" stroke-width="6"/><path d="M1420 155v50" stroke-width="6"/><path d="M1395 205h50l-25 40z" stroke-width="6"/><path d="M1420 245v65h-420" stroke-width="6"/><path d="M980 420q25-50 50 0t50 0 50 0 50 0 50 0 50 0 50 0 50 0 50 0" stroke-width="6"/><g fill="#e4c07a" opacity=".55"><circle cx="1020" cy="560" r="7"/><circle cx="1080" cy="560" r="7"/><circle cx="1140" cy="560" r="7"/><circle cx="1200" cy="560" r="7"/><circle cx="1260" cy="560" r="7"/><circle cx="1320" cy="560" r="7"/><circle cx="1380" cy="560" r="7"/><circle cx="1440" cy="560" r="7"/><circle cx="1020" cy="605" r="7"/><circle cx="1080" cy="605" r="7"/><circle cx="1140" cy="605" r="7"/><circle cx="1200" cy="605" r="7"/><circle cx="1260" cy="605" r="7"/><circle cx="1320" cy="605" r="7"/><circle cx="1380" cy="605" r="7"/><circle cx="1440" cy="605" r="7"/><circle cx="1020" cy="650" r="7"/><circle cx="1080" cy="650" r="7"/><circle cx="1140" cy="650" r="7"/><circle cx="1200" cy="650" r="7"/><circle cx="1260" cy="650" r="7"/><circle cx="1320" cy="650" r="7"/><circle cx="1380" cy="650" r="7"/><circle cx="1440" cy="650" r="7"/></g><rect x="990" y="525" width="480" height="160" rx="14" stroke-width="6"/></g><g fill="#2f6fb0" opacity=".75"><circle cx="1000" cy="215" r="14"/><circle cx="1120" cy="155" r="14"/><circle cx="1420" cy="155" r="14"/><circle cx="1000" cy="325" r="14"/></g><text x="120" y="160" fill="#e4c07a" font-family="Arial,sans-serif" font-size="30" letter-spacing="5">ELECTRÓNICA · HERRAMIENTAS</text><foreignObject x="115" y="210" width="700" height="390"><div xmlns="http://www.w3.org/1999/xhtml" style="font:64px Georgia,serif;line-height:1.08;color:white">Simuladores de Circuitos Online: Falstad vs Tinkercad</div></foreignObject></svg>