<svg xmlns="http://www.w3.org/2000/svg" width="1600" height="800" viewBox="0 0 1600 800" role="img" aria-labelledby="t d"><title id="t">Variadores de Frecuencia (VFD) para Makers: Parámetros y Frenado</title><desc id="d">Ilustración técnica editorial para Variadores de Frecuencia (VFD) para Makers: Parámetros y Frenado</desc><defs><linearGradient id="g" x2="1" y2="1"><stop stop-color="#161b24"/><stop offset="1" stop-color="#3a2f3f"/></linearGradient><pattern id="p" width="48" height="48" patternUnits="userSpaceOnUse"><path d="M48 0H0V48" fill="none" stroke="#e4c07a" stroke-opacity=".08"/></pattern></defs><rect width="1600" height="800" fill="url(#g)"/><rect width="1600" height="800" fill="url(#p)"/><g fill="none" stroke="#e4c07a" stroke-width="8" opacity=".9"><circle cx="1220" cy="410" r="175"/><circle cx="1220" cy="410" r="70"/><path d="M1220 235v-70M1220 585v70M1045 410h-70M1395 410h70" stroke-width="7"/><path d="M1220 340a70 70 0 0 1 0 140" stroke-width="7"/><rect x="1420" y="360" width="120" height="100" rx="12"/><path d="M1395 410h25" stroke-width="7"/></g><g fill="none" stroke="#2f6fb0" stroke-width="6" opacity=".8"><path d="M960 650l60-90 60 90 60-90 60 90 60-90 60 90"/></g><text x="120" y="160" fill="#e4c07a" font-family="Arial,sans-serif" font-size="30" letter-spacing="5">MOTORES Y ACTUADORES · VARIADORES</text><foreignObject x="115" y="210" width="700" height="390"><div xmlns="http://www.w3.org/1999/xhtml" style="font:64px Georgia,serif;line-height:1.08;color:white">Variadores de Frecuencia (VFD) para Makers: Parámetros y Frenado</div></foreignObject></svg>
